HIERARCHY
ROOT joint_Root
{
	OFFSET 0.0 0.0 0.0
	CHANNELS 6 Xposition Yposition Zposition Zrotation Xrotation Yrotation 
	JOINT Hips
	{
		OFFSET -0.726466 93.3139 -2.00062
		CHANNELS 6 Xposition Yposition Zposition Zrotation Xrotation Yrotation 
		JOINT Spine
		{
			OFFSET 15.7357 0.0 0.0
			CHANNELS 6 Xposition Yposition Zposition Zrotation Xrotation Yrotation 
			JOINT Chest
			{
				OFFSET 8.98455 -0.406207 0.0
				CHANNELS 6 Xposition Yposition Zposition Zrotation Xrotation Yrotation 
				JOINT Neck
				{
					OFFSET 16.3773 0.0 0.0
					CHANNELS 6 Xposition Yposition Zposition Zrotation Xrotation Yrotation 
					JOINT Head
					{
						OFFSET 6.45672 0.0 0.0
						CHANNELS 6 Xposition Yposition Zposition Zrotation Xrotation Yrotation 
						End Site
						{
							OFFSET 0.0 0.0 0.0
						}
					}
				}
				JOINT Shoulder_L
				{
					OFFSET 12.9942 -0.242716 4.98039
					CHANNELS 6 Xposition Yposition Zposition Zrotation Xrotation Yrotation 
					JOINT UpperArm_L
					{
						OFFSET 5.34809 0.0 0.0
						CHANNELS 6 Xposition Yposition Zposition Zrotation Xrotation Yrotation 
						JOINT LowerArm_L
						{
							OFFSET 24.3286 1.87007e-05 0.0
							CHANNELS 6 Xposition Yposition Zposition Zrotation Xrotation Yrotation 
							JOINT Hand_L
							{
								OFFSET 22.2916 0.0 0.0
								CHANNELS 6 Xposition Yposition Zposition Zrotation Xrotation Yrotation 
								End Site
								{
									OFFSET 0.0 0.0 0.0
								}
							}
						}
					}
				}
				JOINT Shoulder_R
				{
					OFFSET 12.9945 -0.242716 -4.98039
					CHANNELS 6 Xposition Yposition Zposition Zrotation Xrotation Yrotation 
					JOINT UpperArm_R
					{
						OFFSET -5.34813 0.0 0.0
						CHANNELS 6 Xposition Yposition Zposition Zrotation Xrotation Yrotation 
						JOINT LowerArm_R
						{
							OFFSET -24.3289 0.000322201 0.0
							CHANNELS 6 Xposition Yposition Zposition Zrotation Xrotation Yrotation 
							JOINT Hand_R
							{
								OFFSET -22.2915 -0.000108084 0.0
								CHANNELS 6 Xposition Yposition Zposition Zrotation Xrotation Yrotation 
								End Site
								{
									OFFSET 0.0 0.0 0.0
								}
							}
						}
					}
				}
			}
		}
		JOINT UpperLeg_L
		{
			OFFSET -2.19248 -6.46944 0.0
			CHANNELS 6 Xposition Yposition Zposition Zrotation Xrotation Yrotation 
			JOINT LowerLeg_L
			{
				OFFSET 39.0811 0.0 -1.23785e-05
				CHANNELS 6 Xposition Yposition Zposition Zrotation Xrotation Yrotation 
				JOINT Foot_L
				{
					OFFSET 40.9854 0.0 -1.26872e-05
					CHANNELS 6 Xposition Yposition Zposition Zrotation Xrotation Yrotation 
					JOINT Toes_L
					{
						OFFSET 11.7543 0.0 0.0
						CHANNELS 6 Xposition Yposition Zposition Zrotation Xrotation Yrotation 
						End Site
						{
							OFFSET 0.0 0.0 0.0
						}
					}
				}
			}
		}
		JOINT UpperLeg_R
		{
			OFFSET -2.19251 6.46944 0.0
			CHANNELS 6 Xposition Yposition Zposition Zrotation Xrotation Yrotation 
			JOINT LowerLeg_R
			{
				OFFSET -39.0811 -0.00228153 -0.0401928
				CHANNELS 6 Xposition Yposition Zposition Zrotation Xrotation Yrotation 
				JOINT Foot_R
				{
					OFFSET -40.9854 0.0 0.0
					CHANNELS 6 Xposition Yposition Zposition Zrotation Xrotation Yrotation 
					JOINT Toes_R
					{
						OFFSET -11.7543 0.0 0.0
						CHANNELS 6 Xposition Yposition Zposition Zrotation Xrotation Yrotation 
						End Site
						{
							OFFSET 0.0 0.0 0.0
						}
					}
				}
			}
		}
	}
}
MOTION
Frames:	9
Frame Time:	0.0333333
0.000000 0.000000 0.000000 0.000000 0.000000 -0.000000 -0.333435 92.927100 0.254086 89.186500 -2.036230 1.664520 15.735700 0.000005 -0.000001 98.586000 87.384100 -98.956800 8.984550 -0.406207 -0.000000 -2.590310 0.814302 -0.723189 16.377300 -0.000001 -0.000001 1.843300 -2.380980 2.666240 6.456720 -0.000001 -0.000000 8.074780 -1.846210 -3.869620 12.994200 -0.242716 4.980390 -86.934900 -8.736730 -70.580700 5.348090 -0.000007 -0.000001 -85.724400 -37.781300 -83.822400 24.328600 0.000019 0.000005 16.295900 7.722600 -65.313800 22.291600 -0.000001 0.000005 35.326900 5.377490 -2.222390 12.994500 -0.242716 -4.980390 90.587700 -1.913850 -72.924300 -5.348130 -0.000001 -0.000004 -74.448000 -36.329100 -86.641700 -24.328900 0.000322 -0.000009 18.361900 12.668800 -56.547100 -22.291500 -0.000108 -0.000004 41.243300 4.836370 10.622000 -2.192480 -6.469440 -0.000000 -176.771000 -8.969410 -2.219520 39.081100 -0.000007 -0.000012 -0.065440 0.214745 16.947800 40.985400 -0.000006 -0.000013 -0.263235 4.445450 -63.189200 11.754300 -0.000000 0.000003 -0.000001 -0.000011 -16.577900 -2.192510 6.469440 -0.000001 178.462000 12.428500 -179.384000 -39.081100 -0.002282 -0.040193 -0.036390 0.159315 14.000100 -40.985400 0.000008 0.000006 1.761000 6.588290 -63.235100 -11.754300 -0.000006 -0.000006 -0.004476 -0.056302 -18.863600
0.000000 0.000000 0.000000 0.000000 0.000000 -0.000000 -0.306920 92.917600 0.339287 89.171300 -2.214070 1.690990 15.735700 0.000005 -0.000001 98.167800 87.402100 -98.492200 8.984550 -0.406207 -0.000000 -2.620780 0.767319 -0.631293 16.377300 -0.000001 -0.000001 2.171080 -2.371860 2.708930 6.456720 -0.000001 -0.000000 8.331870 -1.856650 -3.892470 12.994200 -0.242716 4.980390 -86.890300 -8.840370 -70.530900 5.348090 -0.000007 -0.000001 -91.651400 -38.463000 -85.952900 24.328600 0.000019 0.000005 15.862900 7.426970 -65.539400 22.291600 -0.000001 0.000005 37.027600 5.330020 -0.787895 12.994500 -0.242716 -4.980390 90.602600 -1.955290 -72.867200 -5.348130 -0.000001 -0.000004 -79.579300 -35.990100 -88.488600 -24.328900 0.000322 -0.000009 17.639100 11.876400 -57.089800 -22.291500 -0.000108 -0.000004 42.946100 4.737310 12.480900 -2.192480 -6.469440 -0.000000 -176.762000 -9.143020 -2.119710 39.081100 -0.000007 -0.000012 -0.065138 0.213322 16.980100 40.985400 -0.000006 -0.000013 -0.245712 4.412560 -63.285900 11.754300 -0.000000 0.000003 -0.000001 -0.000010 -16.577900 -2.192510 6.469440 -0.000001 178.454000 12.254400 -179.332000 -39.081100 -0.002282 -0.040193 -0.036425 0.159155 14.025500 -40.985400 0.000008 0.000006 1.755830 6.574260 -63.286300 -11.754300 -0.000006 -0.000006 -0.004495 -0.056496 -18.871500
0.000000 0.000000 0.000000 0.000000 0.000000 -0.000000 -0.278254 92.880800 0.437145 89.177200 -2.451340 1.915970 15.735700 0.000005 -0.000001 98.811600 87.376800 -99.098800 8.984550 -0.406207 -0.000000 -2.579570 0.829322 -0.555908 16.377300 -0.000001 -0.000001 2.520490 -2.394440 2.843860 6.456720 -0.000001 -0.000000 8.774290 -2.000510 -3.793040 12.994200 -0.242716 4.980390 -86.882800 -8.860210 -70.527500 5.348090 -0.000007 -0.000001 -94.596900 -37.947100 -87.104900 24.328600 0.000019 0.000005 14.579800 6.502150 -66.473400 22.291600 -0.000001 0.000005 40.279300 5.344930 -1.223670 12.994500 -0.242716 -4.980390 90.591000 -1.925190 -72.929600 -5.348130 -0.000001 -0.000004 -81.039100 -35.268200 -88.873900 -24.328900 0.000322 -0.000009 17.420800 10.912100 -58.899300 -22.291500 -0.000108 -0.000004 45.634400 4.773670 11.811700 -2.192480 -6.469440 -0.000000 -176.743000 -9.171810 -1.909920 39.081100 -0.000007 -0.000012 -0.067549 0.217902 17.223300 40.985400 -0.000006 -0.000013 -0.248668 4.260280 -63.504400 11.754300 -0.000000 0.000003 -0.000000 -0.000005 -16.577700 -2.192510 6.469440 -0.000001 178.325000 12.069600 -179.160000 -39.081100 -0.002282 -0.040193 -0.041829 0.177695 14.259700 -40.985400 0.000008 0.000006 1.522560 6.703940 -63.430300 -11.754300 -0.000006 -0.000006 -0.004414 -0.055680 -18.838300
0.000000 0.000000 0.000000 0.000000 0.000000 -0.000000 -0.261548 92.860600 0.517795 89.191100 -2.678450 2.114540 15.735700 0.000005 -0.000001 99.658100 87.362800 -99.918300 8.984550 -0.406207 -0.000000 -2.564330 0.908045 -0.500057 16.377300 -0.000001 -0.000001 2.778560 -2.444920 2.978620 6.456720 -0.000001 -0.000000 9.194220 -2.153140 -3.650930 12.994200 -0.242716 4.980390 -86.915400 -8.769110 -70.532700 5.348090 -0.000007 -0.000001 -93.321100 -36.961600 -86.628600 24.328600 0.000019 0.000005 15.008900 6.147560 -68.227200 22.291600 -0.000001 0.000005 41.894200 5.375510 -2.157850 12.994500 -0.242716 -4.980390 90.537200 -1.757370 -72.998300 -5.348130 -0.000001 -0.000004 -78.559600 -34.229200 -88.142700 -24.328900 0.000322 -0.000009 18.927800 10.777100 -61.398600 -22.291500 -0.000108 -0.000004 47.575600 4.850470 10.352000 -2.192480 -6.469440 -0.000000 -176.743000 -9.228030 -1.662560 39.081100 -0.000007 -0.000012 -0.067675 0.217114 17.312400 40.985400 -0.000006 -0.000013 -0.260111 4.078840 -63.632500 11.754300 -0.000000 0.000003 -0.000001 -0.000008 -16.577800 -2.192510 6.469440 -0.000001 178.226000 11.981400 -178.976000 -39.081100 -0.002282 -0.040193 -0.044077 0.184849 14.384600 -40.985400 0.000008 0.000006 1.411070 6.825320 -63.520000 -11.754300 -0.000006 -0.000006 -0.004443 -0.055973 -18.850200
0.000000 0.000000 0.000000 0.000000 0.000000 -0.000000 -0.254915 92.832400 0.592874 89.185700 -2.847880 2.355150 15.735700 0.000005 -0.000001 99.878800 87.344900 -100.102000 8.984550 -0.406207 -0.000000 -2.532810 0.930827 -0.426518 16.377300 -0.000001 -0.000001 2.880940 -2.508100 3.136230 6.456720 -0.000001 -0.000000 9.626790 -2.239200 -3.614200 12.994200 -0.242716 4.980390 -86.998200 -8.570520 -70.613800 5.348090 -0.000007 -0.000001 -88.021200 -35.946000 -84.689400 24.328600 0.000019 0.000005 16.850200 6.104930 -70.651800 22.291600 -0.000001 0.000005 41.543200 5.398550 -2.890720 12.994500 -0.242716 -4.980390 90.503000 -1.651020 -73.052500 -5.348130 -0.000001 -0.000004 -73.279600 -32.890700 -86.847600 -24.328900 0.000322 -0.000009 20.751500 10.553500 -64.202900 -22.291500 -0.000108 -0.000004 47.896100 4.921190 8.951850 -2.192480 -6.469440 -0.000000 -176.687000 -9.360380 -1.421170 39.081100 -0.000007 -0.000012 -0.069601 0.220837 17.493200 40.985400 -0.000006 -0.000013 -0.255936 4.055220 -63.801300 11.754300 -0.000000 0.000003 -0.000000 -0.000005 -16.577700 -2.192510 6.469440 -0.000001 178.127000 11.988200 -178.767000 -39.081100 -0.002282 -0.040193 -0.047263 0.194864 14.554900 -40.985400 0.000008 0.000006 1.279720 7.012680 -63.631600 -11.754300 -0.000006 -0.000006 -0.004204 -0.053544 -18.751200
0.000000 0.000000 0.000000 0.000000 0.000000 -0.000000 -0.261249 92.820100 0.628031 89.187800 -2.907460 2.465370 15.735700 0.000005 -0.000001 100.086000 87.367900 -100.302000 8.984550 -0.406207 -0.000000 -2.581540 0.941125 -0.411124 16.377300 -0.000001 -0.000001 2.837210 -2.613440 3.269560 6.456720 -0.000001 -0.000000 9.952900 -2.316110 -3.448990 12.994200 -0.242716 4.980390 -87.082600 -8.346260 -70.654300 5.348090 -0.000007 -0.000001 -79.605300 -34.589700 -81.973000 24.328600 0.000019 0.000005 18.502600 5.863970 -73.022500 22.291600 -0.000001 0.000005 40.398500 5.423550 -3.720150 12.994500 -0.242716 -4.980390 90.444900 -1.461760 -73.069700 -5.348130 -0.000001 -0.000004 -65.840200 -31.655500 -85.283500 -24.328900 0.000322 -0.000009 21.800700 9.834120 -66.878600 -22.291500 -0.000108 -0.000004 46.737200 5.010910 7.085200 -2.192480 -6.469440 -0.000000 -176.662000 -9.415520 -1.308410 39.081100 -0.000007 -0.000012 -0.070323 0.222143 17.566000 40.985400 -0.000006 -0.000013 -0.262953 4.027960 -63.870200 11.754300 -0.000000 0.000003 -0.000000 -0.000004 -16.577600 -2.192510 6.469440 -0.000001 178.093000 11.934200 -178.684000 -39.081100 -0.002282 -0.040193 -0.048644 0.198780 14.653000 -40.985400 0.000008 0.000006 1.274830 7.046340 -63.700400 -11.754300 -0.000006 -0.000006 -0.004286 -0.054378 -18.785200
0.000000 0.000000 0.000000 0.000000 0.000000 -0.000000 -0.285803 92.812400 0.644240 89.180500 -2.860720 2.568620 15.735700 0.000005 -0.000001 100.213000 87.391800 -100.419000 8.984550 -0.406207 -0.000000 -2.630650 0.943276 -0.390639 16.377300 -0.000001 -0.000001 2.793240 -2.724530 3.371040 6.456720 -0.000001 -0.000000 10.020400 -2.514870 -3.283830 12.994200 -0.242716 4.980390 -87.170500 -8.064620 -70.592700 5.348090 -0.000007 -0.000001 -69.980500 -32.700800 -79.473800 24.328600 0.000019 0.000005 20.013000 5.472460 -75.327200 22.291600 -0.000001 0.000005 38.551600 5.460980 -5.039220 12.994500 -0.242716 -4.980390 90.378900 -1.243660 -73.055400 -5.348130 -0.000001 -0.000004 -56.531900 -30.833200 -83.363300 -24.328900 0.000322 -0.000009 23.025200 9.090270 -69.608700 -22.291500 -0.000108 -0.000004 45.474500 5.108340 4.919740 -2.192480 -6.469440 -0.000000 -176.610000 -9.415970 -1.223060 39.081100 -0.000007 -0.000012 -0.071396 0.224731 17.624800 40.985400 -0.000006 -0.000013 -0.272203 4.092480 -63.907400 11.754300 -0.000000 0.000003 -0.000001 -0.000012 -16.577900 -2.192510 6.469440 -0.000001 178.096000 11.934300 -178.599000 -39.081100 -0.002282 -0.040193 -0.049231 0.199923 14.730300 -40.985400 0.000008 0.000006 1.367490 7.013370 -63.770400 -11.754300 -0.000006 -0.000006 -0.004560 -0.057143 -18.897900
0.000000 0.000000 0.000000 0.000000 0.000000 -0.000000 -0.302647 92.802500 0.655478 89.160000 -2.774650 2.662420 15.735700 0.000005 -0.000001 100.981000 87.401700 -101.190000 8.984550 -0.406207 -0.000000 -2.662960 1.008540 -0.395302 16.377300 -0.000001 -0.000001 2.615980 -2.879560 3.482770 6.456720 -0.000001 -0.000000 10.127000 -2.796730 -3.064680 12.994200 -0.242716 4.980390 -87.215200 -7.872460 -70.448500 5.348090 -0.000007 -0.000001 -60.645500 -30.446400 -77.750400 24.328600 0.000019 0.000005 23.331100 5.373960 -77.748500 22.291600 -0.000001 0.000005 36.048200 5.492790 -6.246960 12.994500 -0.242716 -4.980390 90.304500 -1.003240 -73.116900 -5.348130 -0.000001 -0.000004 -46.740400 -30.506900 -81.175300 -24.328900 0.000322 -0.000009 24.993800 8.401700 -72.598600 -22.291500 -0.000108 -0.000004 43.621200 5.224980 2.080420 -2.192480 -6.469440 -0.000000 -176.553000 -9.347520 -1.181260 39.081100 -0.000007 -0.000012 -0.072730 0.227517 17.727300 40.985400 -0.000006 -0.000013 -0.271462 4.178120 -63.958900 11.754300 -0.000000 0.000003 -0.000000 -0.000005 -16.577600 -2.192510 6.469440 -0.000001 178.094000 12.031100 -178.485000 -39.081100 -0.002282 -0.040193 -0.049046 0.199023 14.744200 -40.985400 0.000008 0.000006 1.275760 7.021360 -63.784400 -11.754300 -0.000006 -0.000006 -0.004473 -0.056268 -18.862200
0.000000 0.000000 0.000000 0.000000 0.000000 -0.000000 -0.320764 92.795600 0.653737 89.185200 -2.612010 2.820320 15.735700 0.000005 -0.000001 101.184000 87.368300 -101.418000 8.984550 -0.406207 -0.000000 -2.600540 1.041690 -0.443738 16.377300 -0.000001 -0.000001 2.329580 -3.015330 3.475420 6.456720 -0.000001 -0.000000 10.218200 -3.074240 -2.688360 12.994200 -0.242716 4.980390 -87.226100 -7.756170 -70.251100 5.348090 -0.000007 -0.000001 -52.886900 -28.329500 -77.135200 24.328600 0.000019 0.000005 28.293000 5.798750 -79.369400 22.291600 -0.000001 0.000005 34.948400 5.530860 -7.832800 12.994500 -0.242716 -4.980390 90.275900 -0.915199 -73.221800 -5.348130 -0.000001 -0.000004 -39.189200 -30.329300 -79.666000 -24.328900 0.000322 -0.000009 27.633400 7.837530 -75.401300 -22.291500 -0.000108 -0.000004 41.167800 5.395000 -2.777170 -2.192480 -6.469440 -0.000000 -176.555000 -9.171740 -1.070590 39.081100 -0.000007 -0.000012 -0.072519 0.226213 17.774700 40.985400 -0.000006 -0.000013 -0.292648 4.118660 -63.965400 11.754300 -0.000000 0.000003 -0.000001 -0.000010 -16.577900 -2.192510 6.469440 -0.000001 178.024000 12.193500 -178.324000 -39.081100 -0.002282 -0.040193 -0.050598 0.204218 14.792700 -40.985400 0.000008 0.000006 1.220000 7.043330 -63.820100 -11.754300 -0.000006 -0.000006 -0.004247 -0.053985 -18.769200
